<svg viewBox="0 0 246 256" fill="none" xmlns="http://www.w3.org/2000/svg">
  <path d="M213.834 45.5L107.025 137.822L0.216797 45.5H213.834Z" fill="white"/>
  <path d="M157.321 38C162.217 20.6862 178.136 8 197.018 8C219.8 8 238.268 26.4683 238.268 49.25C238.268 72.0317 219.8 90.5 197.018 90.5C191.384 90.5 186.014 89.3705 181.122 87.3257L175.322 92.9181C181.856 96.1708 189.223 98 197.018 98C223.942 98 245.768 76.1739 245.768 49.25C245.768 22.3261 223.942 0.5 197.018 0.5C173.966 0.5 154.651 16.4998 149.572 38H157.321Z" fill="currentColor" />
  <path d="M46.4911 68.2615L94.5346 114.47L99.7336 109.064L51.6901 62.856L46.4911 68.2615Z" fill="currentColor" />
  <path fill-rule="evenodd" clip-rule="evenodd" d="M213.834 45.5H0.216797L103.275 144.621V248H83.0037V255.5H131.047V248H110.775V144.621L213.834 45.5ZM195.217 53L107.025 137.822L18.834 53H195.217Z" fill="currentColor" />
</svg>
