<svg viewBox="0 0 188 234" fill="none" xmlns="http://www.w3.org/2000/svg">
<path fill-rule="evenodd" clip-rule="evenodd" d="M0.25 0.75H90.9141L90.0174 39.7793L87.3448 121.203L63.3592 190.804L78.5565 233.25H12.5204L27.6867 190.891L0.25 121.227V0.75ZM7.75 8.25V53.4844H30.7947L65.4101 35.9062H82.6044L83.2398 8.25H7.75ZM82.3941 43.4062H67.2053L32.5899 60.9844H7.75V119.804L35.6979 190.765L23.1719 225.75H67.905L55.41 190.852L79.8859 119.828L82.3941 43.4062ZM93.7115 134.344H187.75V170.058L176.77 233.25H104.692L93.7115 170.058V134.344ZM101.212 141.844V169.411L111.001 225.75H170.461L180.25 169.411V141.844H101.212ZM125.154 164.389L144.263 183.797L125.154 203.204L106.045 183.797L125.154 164.389ZM116.57 183.797L125.154 192.514L133.737 183.797L125.154 175.079L116.57 183.797ZM152.846 185.483L171.955 204.891L152.846 224.298L133.737 204.891L152.846 185.483ZM144.263 204.891L152.846 213.608L161.43 204.891L152.846 196.173L144.263 204.891Z" fill="currentColor" />
</svg>
