<svg viewBox="0 0 218 218" fill="none" xmlns="http://www.w3.org/2000/svg">
  <circle cx="108.75" cy="108.75" r="105" fill="white"/>
  <path fill-rule="evenodd" clip-rule="evenodd" d="M108.75 210C164.669 210 210 164.669 210 108.75C210 52.8312 164.669 7.5 108.75 7.5C52.8312 7.5 7.5 52.8312 7.5 108.75C7.5 164.669 52.8312 210 108.75 210ZM108.75 217.5C168.811 217.5 217.5 168.811 217.5 108.75C217.5 48.689 168.811 0 108.75 0C48.689 0 0 48.689 0 108.75C0 168.811 48.689 217.5 108.75 217.5Z" fill="currentColor" />
  <path fill-rule="evenodd" clip-rule="evenodd" d="M64.5933 39.0618C52.8468 46.5048 43.1723 56.7962 36.4687 68.9799C29.7651 81.1635 26.25 94.8439 26.25 108.75H18.75C18.75 93.5797 22.5847 78.6556 29.8977 65.3644C37.2107 52.0732 47.7647 40.8462 60.5791 32.7265L64.5933 39.0618Z" fill="currentColor" />
  <path fill-rule="evenodd" clip-rule="evenodd" d="M108.75 150C131.532 150 150 131.532 150 108.75C150 85.9683 131.532 67.5 108.75 67.5C85.9683 67.5 67.5 85.9683 67.5 108.75C67.5 131.532 85.9683 150 108.75 150ZM108.75 157.5C135.674 157.5 157.5 135.674 157.5 108.75C157.5 81.8261 135.674 60 108.75 60C81.8261 60 60 81.8261 60 108.75C60 135.674 81.8261 157.5 108.75 157.5Z" fill="currentColor" />
</svg>
