<svg viewBox="0 0 12 10" fill="none" xmlns="http://www.w3.org/2000/svg">
<path d="M11.8538 5.35354L7.35375 9.85354C7.25993 9.94736 7.13268 10.0001 7 10.0001C6.86732 10.0001 6.74007 9.94736 6.64625 9.85354C6.55243 9.75972 6.49972 9.63247 6.49972 9.49979C6.49972 9.36711 6.55243 9.23986 6.64625 9.14604L10.2931 5.49979H0.5C0.367392 5.49979 0.240215 5.44711 0.146447 5.35334C0.0526785 5.25958 0 5.1324 0 4.99979C0 4.86718 0.0526785 4.74 0.146447 4.64624C0.240215 4.55247 0.367392 4.49979 0.5 4.49979H10.2931L6.64625 0.85354C6.55243 0.759719 6.49972 0.632472 6.49972 0.49979C6.49972 0.367108 6.55243 0.23986 6.64625 0.14604C6.74007 0.0522194 6.86732 -0.000488281 7 -0.000488281C7.13268 -0.000488281 7.25993 0.0522194 7.35375 0.14604L11.8538 4.64604C11.9002 4.69248 11.9371 4.74762 11.9623 4.80832C11.9874 4.86902 12.0004 4.93408 12.0004 4.99979C12.0004 5.0655 11.9874 5.13056 11.9623 5.19126C11.9371 5.25196 11.9002 5.3071 11.8538 5.35354Z" fill="currentColor"/>
</svg>
