<svg width="12" height="11" viewBox="0 0 12 11" fill="none" xmlns="http://www.w3.org/2000/svg">
<path d="M11.2202 0.691392C11.2139 0.58436 11.1686 0.48335 11.0928 0.407538C11.017 0.331727 10.9159 0.286392 10.8089 0.280142C6.64556 0.0356884 3.31071 1.28913 1.88884 3.64069C1.39597 4.44509 1.1531 5.37775 1.19102 6.32038C1.2222 7.191 1.47595 8.07038 1.94517 8.93717L0.878212 10.0036C0.796119 10.0857 0.75 10.197 0.75 10.3131C0.75 10.4292 0.796119 10.5405 0.878212 10.6226C0.960305 10.7047 1.07165 10.7509 1.18774 10.7509C1.30384 10.7509 1.41518 10.7047 1.49727 10.6226L2.56368 9.55569C3.42993 10.0244 4.30985 10.2781 5.17993 10.3093C5.24082 10.3115 5.30152 10.3126 5.36204 10.3126C6.24346 10.3149 7.10818 10.0722 7.85962 9.61147C10.2112 8.18959 11.4652 4.8553 11.2202 0.691392ZM7.40845 8.86334C6.16431 9.61694 4.69157 9.62897 3.21337 8.90545L8.06032 4.05905C8.10097 4.0184 8.13321 3.97014 8.15521 3.91703C8.17721 3.86392 8.18853 3.807 8.18853 3.74952C8.18853 3.69203 8.17721 3.63511 8.15521 3.582C8.13321 3.52889 8.10097 3.48063 8.06032 3.43999C8.01967 3.39934 7.97142 3.36709 7.91831 3.34509C7.8652 3.3231 7.80827 3.31177 7.75079 3.31177C7.6933 3.31177 7.63638 3.3231 7.58327 3.34509C7.53016 3.36709 7.48191 3.39934 7.44126 3.43999L2.59485 8.28913C1.87352 6.81256 1.88392 5.336 2.63696 4.09405C3.84501 2.09959 6.71665 1.00749 10.3649 1.13764C10.4956 4.78311 9.4029 7.6553 7.40845 8.86334Z" fill="#141414"/>
</svg>
