<svg width="24" height="24" viewBox="0 0 24 24" fill="none" xmlns="http://www.w3.org/2000/svg">
<g clip-path="url(#clip0_18_2395)">
<path fill-rule="evenodd" clip-rule="evenodd" d="M15 8C15 9.65686 13.6568 11 12 11C10.3431 11 9 9.65686 9 8C9 6.34315 10.3431 5 12 5C13.6568 5 15 6.34315 15 8ZM13.5 8C13.5 8.82843 12.8284 9.5 12 9.5C11.1715 9.5 10.5 8.82843 10.5 8C10.5 7.17157 11.1715 6.5 12 6.5C12.8284 6.5 13.5 7.17157 13.5 8Z" fill="white" fill-opacity="0.4"/>
<path fill-rule="evenodd" clip-rule="evenodd" d="M12.0001 19C12.0001 19 19 13.0639 19 8C19 4.11 15.8659 1 12.0001 1C8.13401 1 5 4.11 5 8C5 13.0639 12.0001 19 12.0001 19ZM16.5739 11.1659C17.1709 10.0118 17.5 8.93554 17.5 8C17.5 4.94178 15.0409 2.5 12.0001 2.5C8.95908 2.5 6.5 4.94178 6.5 8C6.5 8.93554 6.82905 10.0118 7.42605 11.1659C8.01693 12.3082 8.82207 13.4343 9.65613 14.4433C10.4866 15.4479 11.3212 16.307 11.9498 16.9159L11.9784 16.9435C11.9857 16.9505 11.9929 16.9575 12.0001 16.9644L12.0198 16.9453C12.0299 16.9356 12.04 16.9258 12.0502 16.9159C12.6788 16.307 13.5134 15.4479 14.3438 14.4433C15.1779 13.4343 15.983 12.3082 16.5739 11.1659Z" fill="white" fill-opacity="0.4"/>
<path d="M4.96775 14.4023L0.00390625 22.9999H24.0009L19.036 14.4004L17.9379 15.4985L21.4029 21.4999H2.60199L6.06583 15.5003L4.96775 14.4023Z" fill="white" fill-opacity="0.4"/>
</g>
<defs>
<clipPath id="clip0_18_2395">
<rect width="24" height="24" fill="white"/>
</clipPath>
</defs>
</svg>
