<svg width="24" height="24" viewBox="0 0 24 24" fill="none" xmlns="http://www.w3.org/2000/svg">
<path fill-rule="evenodd" clip-rule="evenodd" d="M11.1136 7.88889L9.37419 10.1005C9.97951 10.9646 10.6681 11.7882 11.4399 12.5601C12.2118 13.3319 13.0354 14.0205 13.8995 14.6258L16.1111 12.8864L22 14.7037V19.1931C21.9962 20.02 21.6329 20.8043 21.0047 21.342C20.4854 21.7864 19.823 22.0379 19.1409 21.9953C14.8418 21.7267 10.6197 19.9501 7.33479 16.6652C4.04992 13.3803 2.27326 9.15824 2.00467 4.85909C1.96206 4.17697 2.21357 3.51456 2.65797 2.99532C3.19565 2.3671 3.98 2.00381 4.8069 2H9.29634L11.1136 7.88889ZM16.4203 14.5516L20.5 15.8106V19.1889C20.4974 19.579 20.3257 19.9488 20.0293 20.2024C19.7707 20.4238 19.4829 20.5138 19.2344 20.4983C15.286 20.2516 11.4121 18.6212 8.39545 15.6046C5.37884 12.5879 3.74843 8.71403 3.50175 4.76556C3.48623 4.5171 3.57624 4.22928 3.79756 3.97068C4.05123 3.6743 4.42099 3.50261 4.811 3.5H8.18943L9.44841 7.57973L7.50656 10.0487L8.1456 10.961C8.80075 11.8963 9.54546 12.7869 10.3793 13.6207C11.2131 14.4545 12.1037 15.1993 13.039 15.8544L13.9513 16.4934L16.4203 14.5516Z" fill="white" fill-opacity="0.4"/>
</svg>
